<svg xmlns="http://www.w3.org/2000/svg" width="311.894" height="38.878" viewBox="0 0 311.894 38.878">
  <g id="Group_5505" data-name="Group 5505" transform="translate(13.533 0.5)">
    <path id="Path_2184" data-name="Path 2184" d="M934.227,644.744l3.023,8.554a2.558,2.558,0,0,0,2.477,1.7l9.07-.233a2.713,2.713,0,0,1,1.719,4.865l-7.2,5.519a2.557,2.557,0,0,0-.856,2.882l3.023,8.554a2.713,2.713,0,0,1-4.1,3.139l-7.474-5.143a2.556,2.556,0,0,0-3,.077l-7.2,5.518a2.713,2.713,0,0,1-4.251-2.925l2.582-8.7a2.556,2.556,0,0,0-1-2.834l-7.474-5.143a2.713,2.713,0,0,1,1.469-4.947l9.069-.232a2.557,2.557,0,0,0,2.386-1.828l2.582-8.7a2.713,2.713,0,0,1,5.159-.132" transform="translate(-925.383 -642.935)" fill="none" stroke="#f7b500" stroke-width="1" opacity="0.91"/>
    <path id="Path_2185" data-name="Path 2185" d="M934.227,644.744l3.023,8.554a2.558,2.558,0,0,0,2.477,1.7l9.07-.233a2.713,2.713,0,0,1,1.719,4.865l-7.2,5.519a2.557,2.557,0,0,0-.856,2.882l3.023,8.554a2.713,2.713,0,0,1-4.1,3.139l-7.474-5.143a2.556,2.556,0,0,0-3,.077l-7.2,5.518a2.713,2.713,0,0,1-4.251-2.925l2.582-8.7a2.556,2.556,0,0,0-1-2.834l-7.474-5.143a2.713,2.713,0,0,1,1.469-4.947l9.069-.232a2.557,2.557,0,0,0,2.386-1.828l2.582-8.7a2.713,2.713,0,0,1,5.159-.132" transform="translate(-857.478 -642.935)" fill="none" stroke="#f7b500" stroke-width="1" opacity="0.91"/>
    <path id="Path_2186" data-name="Path 2186" d="M934.227,644.744l3.023,8.554a2.558,2.558,0,0,0,2.477,1.7l9.07-.233a2.713,2.713,0,0,1,1.719,4.865l-7.2,5.519a2.557,2.557,0,0,0-.856,2.882l3.023,8.554a2.713,2.713,0,0,1-4.1,3.139l-7.474-5.143a2.556,2.556,0,0,0-3,.077l-7.2,5.518a2.713,2.713,0,0,1-4.251-2.925l2.582-8.7a2.556,2.556,0,0,0-1-2.834l-7.474-5.143a2.713,2.713,0,0,1,1.469-4.947l9.069-.232a2.557,2.557,0,0,0,2.386-1.828l2.582-8.7a2.713,2.713,0,0,1,5.159-.132" transform="translate(-789.573 -642.935)" fill="none" stroke="#f7b500" stroke-width="1" opacity="0.91"/>
    <path id="Path_2187" data-name="Path 2187" d="M934.227,644.744l3.023,8.554a2.558,2.558,0,0,0,2.477,1.7l9.07-.233a2.713,2.713,0,0,1,1.719,4.865l-7.2,5.519a2.557,2.557,0,0,0-.856,2.882l3.023,8.554a2.713,2.713,0,0,1-4.1,3.139l-7.474-5.143a2.556,2.556,0,0,0-3,.077l-7.2,5.518a2.713,2.713,0,0,1-4.251-2.925l2.582-8.7a2.556,2.556,0,0,0-1-2.834l-7.474-5.143a2.713,2.713,0,0,1,1.469-4.947l9.069-.232a2.557,2.557,0,0,0,2.386-1.828l2.582-8.7a2.713,2.713,0,0,1,5.159-.132" transform="translate(-721.669 -642.935)" fill="none" stroke="#f7b500" stroke-width="1" opacity="0.91"/>
    <path id="Path_2188" data-name="Path 2188" d="M934.227,644.744l3.023,8.554a2.558,2.558,0,0,0,2.477,1.7l9.07-.233a2.713,2.713,0,0,1,1.719,4.865l-7.2,5.519a2.557,2.557,0,0,0-.856,2.882l3.023,8.554a2.713,2.713,0,0,1-4.1,3.139l-7.474-5.143a2.556,2.556,0,0,0-3,.077l-7.2,5.518a2.713,2.713,0,0,1-4.251-2.925l2.582-8.7a2.556,2.556,0,0,0-1-2.834l-7.474-5.143a2.713,2.713,0,0,1,1.469-4.947l9.069-.232a2.557,2.557,0,0,0,2.386-1.828l2.582-8.7a2.713,2.713,0,0,1,5.159-.132" transform="translate(-653.764 -642.935)" fill="none" stroke="#f7b500" stroke-width="1" opacity="0.91"/>
  </g>
</svg>
